<?xml version="1.0" encoding="utf-8"?>
<!-- Generator: Adobe Illustrator 25.4.1, SVG Export Plug-In . SVG Version: 6.00 Build 0)  -->
<svg version="1.1" id="Layer_1" xmlns="http://www.w3.org/2000/svg" xmlns:xlink="http://www.w3.org/1999/xlink" x="0px" y="0px"
	 viewBox="0 0 720 504" style="enable-background:new 0 0 720 504;" xml:space="preserve">
<style type="text/css">
	.st0{fill:#FF0000;}
</style>
<g>
	<g>
		<g>
			<polygon class="st0" points="212.6,218.1 281.2,285.9 212.6,252 			"/>
			<path class="st0" d="M254,255.2l27.3,27v-64.1L254,255.2z M276.5,270.7l-16.2-16l21-36.6L276.5,270.7z"/>
		</g>
	</g>
	<g>
		<path class="st0" d="M332.8,269.4l-5.2,10.4l-27.8-55.5h10.3L332.8,269.4z M355.3,224.2h10.3l-13.9,27.7h-10.4L355.3,224.2z"/>
		<path class="st0" d="M399.9,279.8l-17.4-34.7L365,279.8h-10.3l27.8-55.5l0.1,0.1v-0.1l27.8,55.5H399.9z"/>
		<path class="st0" d="M454.2,270.5v9.3h-37v-55.5h9.2v46.2H454.2z"/>
		<path class="st0" d="M507.4,224.2v32.4c0,1.6-0.1,3.1-0.4,4.6c-0.1,0.7-0.3,1.5-0.5,2.2c-0.4,1.2-0.8,2.4-1.4,3.5
			c-1.1,2.2-2.6,4.3-4.4,6.1c-4.2,4.3-9.4,6.5-15.2,6.7c-0.3,0-0.7,0-1,0c-0.4,0-0.8,0-1.2,0c-5.9-0.2-11-2.5-15.2-6.7
			c-1.9-1.9-3.4-3.9-4.4-6.1c-0.6-1.1-1-2.3-1.4-3.5c-0.2-0.7-0.4-1.4-0.5-2.2c-0.3-1.5-0.4-3-0.4-4.6v-32.4h9.2v32.4
			c0,0.2,0,0.5,0,0.7c0.2,3.5,1.6,6.5,4.1,9c2.6,2.6,5.6,3.9,9.1,4.1c0.2,0,0.5,0,0.7,0c0.2,0,0.4,0,0.6,0c3.5-0.2,6.5-1.5,9.1-4.1
			c2.5-2.6,4-5.5,4.1-9c0-0.2,0-0.5,0-0.7v-32.4H507.4z"/>
	</g>
</g>
</svg>
